# xmcd
# Copyright (C) 1995-1998 Ti Kan
#
# Track frame offsets:
#       150
#       16397
#       26487
#       47850
#       65213
#       82601
#       96139
#       115382
#       133805
#       155208
#       173027
#       185889
#
# Disc length: 2743 seconds
#
# Revision: 0
# Processed by: cddbd v1.5.2PL0 Copyright (c) Steve Scherf et al.
# Submitted via: CD-Import v1.0
#
DISCID=a60ab50c
DTITLE=Steff La Cheffe - Bittersüessi Pille
DYEAR=2010
DGENRE=
TTITLE0=Annabelle
TTITLE1=Hr. Doktor Feat. Dodo)
TTITLE2=Bittersüessi Pille (Feat. Dodo)
TTITLE3=Im Momänt
TTITLE4=Schaffe Das (Feat. Ekr)
TTITLE5=No Competition
TTITLE6=Briche Brot
TTITLE7=Chum I Mini Chuchi
TTITLE8=Besser Wenn I Gah
TTITLE9=Wo Bisch?
TTITLE10=Meh
TTITLE11=Schön
EXTD=
EXTT0=
EXTT1=
EXTT2=
EXTT3=
EXTT4=
EXTT5=
EXTT6=
EXTT7=
EXTT8=
EXTT9=
EXTT10=
EXTT11=
PLAYORDER=
